<?xml version="1.0" encoding="UTF-8" standalone="no"?>
<!DOCTYPE svg PUBLIC "-//W3C//DTD SVG 1.1//EN"
 "http://www.w3.org/Graphics/SVG/1.1/DTD/svg11.dtd">
<!-- Generated by graphviz version 2.40.1 (20161225.0304)
 -->
<!-- Title: dependencies Pages: 1 -->
<svg width="1856pt" height="396pt"
 viewBox="0.00 0.00 1856.00 395.59" xmlns="http://www.w3.org/2000/svg" xmlns:xlink="http://www.w3.org/1999/xlink">
<g id="graph0" class="graph" transform="scale(1 1) rotate(0) translate(4 391.5901)">
<title>dependencies</title>
<polygon fill="#ffffff" stroke="transparent" points="-4,4 -4,-391.5901 1852,-391.5901 1852,4 -4,4"/>
<text text-anchor="start" x="903.0091" y="-42.4" font-family="sans-serif" font-weight="bold" font-size="14.00" fill="#000000">Legend</text>
<polygon fill="#ffffb3" stroke="transparent" points="690,-10 690,-30 710,-30 710,-10 690,-10"/>
<text text-anchor="start" x="713.629" y="-15.4" font-family="sans-serif" font-size="14.00" fill="#000000"> &#160;Declarations</text>
<polygon fill="#8dd3c7" stroke="transparent" points="803,-10 803,-30 823,-30 823,-10 803,-10"/>
<text text-anchor="start" x="826.7251" y="-15.4" font-family="sans-serif" font-size="14.00" fill="#000000"> &#160;Module</text>
<polygon fill="#80b1d3" stroke="transparent" points="889,-10 889,-30 909,-30 909,-10 889,-10"/>
<text text-anchor="start" x="912.7812" y="-15.4" font-family="sans-serif" font-size="14.00" fill="#000000"> &#160;Bootstrap</text>
<polygon fill="#fdb462" stroke="transparent" points="986,-10 986,-30 1006,-30 1006,-10 986,-10"/>
<text text-anchor="start" x="1009.6732" y="-15.4" font-family="sans-serif" font-size="14.00" fill="#000000"> &#160;Providers</text>
<polygon fill="#fb8072" stroke="transparent" points="1082,-10 1082,-30 1102,-30 1102,-10 1082,-10"/>
<text text-anchor="start" x="1105.7258" y="-15.4" font-family="sans-serif" font-size="14.00" fill="#000000"> &#160;Exports</text>
<g id="clust1" class="cluster">
<title>cluster_IgetEditorModule</title>
<polygon fill="none" stroke="#000000" stroke-dasharray="1,5" points="8,-70 8,-379.5901 1840,-379.5901 1840,-70 8,-70"/>
</g>
<g id="clust2" class="cluster">
<title>cluster_IgetEditorModule_declarations</title>
<polygon fill="none" stroke="#000000" points="436,-189.5901 436,-241.5901 1832,-241.5901 1832,-189.5901 436,-189.5901"/>
</g>
<g id="clust3" class="cluster">
<title>cluster_IgetEditorModule_IgetEditorComponent_providers</title>
<polygon fill="none" stroke="#000000" points="956,-78 956,-176.5901 1832,-176.5901 1832,-78 956,-78"/>
</g>
<g id="clust11" class="cluster">
<title>cluster_IgetEditorModule_exports</title>
<polygon fill="none" stroke="#000000" points="856,-319.5901 856,-371.5901 1014,-371.5901 1014,-319.5901 856,-319.5901"/>
</g>
<g id="clust13" class="cluster">
<title>cluster_IgetEditorModule_providers</title>
<polygon fill="none" stroke="#000000" points="16,-189.5901 16,-241.5901 428,-241.5901 428,-189.5901 16,-189.5901"/>
</g>
<!-- IgetEditorComponent -->
<g id="node1" class="node">
<title>IgetEditorComponent</title>
<polygon fill="#ffffb3" stroke="#000000" points="1824.0926,-233.5901 1685.9074,-233.5901 1685.9074,-197.5901 1824.0926,-197.5901 1824.0926,-233.5901"/>
<text text-anchor="middle" x="1755" y="-211.3901" font-family="Times,serif" font-size="14.00" fill="#000000">IgetEditorComponent</text>
</g>
<!-- IgetEditorModule -->
<g id="node8" class="node">
<title>IgetEditorModule</title>
<polygon fill="#8dd3c7" stroke="#000000" points="993.3104,-298.5901 990.3104,-302.5901 969.3104,-302.5901 966.3104,-298.5901 876.6896,-298.5901 876.6896,-262.5901 993.3104,-262.5901 993.3104,-298.5901"/>
<text text-anchor="middle" x="935" y="-276.3901" font-family="Times,serif" font-size="14.00" fill="#000000">IgetEditorModule</text>
</g>
<!-- IgetEditorComponent&#45;&gt;IgetEditorModule -->
<g id="edge1" class="edge">
<title>IgetEditorComponent&#45;&gt;IgetEditorModule</title>
<path fill="none" stroke="#000000" d="M1755,-233.601C1755,-256.0752 1755,-291.5901 1755,-291.5901 1755,-291.5901 1003.315,-291.5901 1003.315,-291.5901"/>
<polygon fill="#000000" stroke="#000000" points="1003.315,-288.0902 993.315,-291.5901 1003.315,-295.0902 1003.315,-288.0902"/>
</g>
<!-- IgetEditorGrippieComponent -->
<g id="node2" class="node">
<title>IgetEditorGrippieComponent</title>
<polygon fill="#ffffb3" stroke="#000000" points="1668.3557,-233.5901 1487.6443,-233.5901 1487.6443,-197.5901 1668.3557,-197.5901 1668.3557,-233.5901"/>
<text text-anchor="middle" x="1578" y="-211.3901" font-family="Times,serif" font-size="14.00" fill="#000000">IgetEditorGrippieComponent</text>
</g>
<!-- IgetEditorGrippieComponent&#45;&gt;IgetEditorModule -->
<g id="edge3" class="edge">
<title>IgetEditorGrippieComponent&#45;&gt;IgetEditorModule</title>
<path fill="none" stroke="#000000" d="M1578,-233.719C1578,-254.1625 1578,-284.5901 1578,-284.5901 1578,-284.5901 1003.196,-284.5901 1003.196,-284.5901"/>
<polygon fill="#000000" stroke="#000000" points="1003.1961,-281.0902 993.196,-284.5901 1003.196,-288.0902 1003.1961,-281.0902"/>
</g>
<!-- IgetEditorMessageComponent -->
<g id="node3" class="node">
<title>IgetEditorMessageComponent</title>
<polygon fill="#ffffb3" stroke="#000000" points="1469.5702,-233.5901 1282.4298,-233.5901 1282.4298,-197.5901 1469.5702,-197.5901 1469.5702,-233.5901"/>
<text text-anchor="middle" x="1376" y="-211.3901" font-family="Times,serif" font-size="14.00" fill="#000000">IgetEditorMessageComponent</text>
</g>
<!-- IgetEditorMessageComponent&#45;&gt;IgetEditorModule -->
<g id="edge4" class="edge">
<title>IgetEditorMessageComponent&#45;&gt;IgetEditorModule</title>
<path fill="none" stroke="#000000" d="M1376,-233.8568C1376,-252.1452 1376,-277.5901 1376,-277.5901 1376,-277.5901 1003.5614,-277.5901 1003.5614,-277.5901"/>
<polygon fill="#000000" stroke="#000000" points="1003.5614,-274.0902 993.5614,-277.5901 1003.5614,-281.0902 1003.5614,-274.0902"/>
</g>
<!-- IgetEditorToolbarButtonComponent -->
<g id="node4" class="node">
<title>IgetEditorToolbarButtonComponent</title>
<polygon fill="#ffffb3" stroke="#000000" points="1264.0293,-233.5901 1043.9707,-233.5901 1043.9707,-197.5901 1264.0293,-197.5901 1264.0293,-233.5901"/>
<text text-anchor="middle" x="1154" y="-211.3901" font-family="Times,serif" font-size="14.00" fill="#000000">IgetEditorToolbarButtonComponent</text>
</g>
<!-- IgetEditorToolbarButtonComponent&#45;&gt;IgetEditorModule -->
<g id="edge5" class="edge">
<title>IgetEditorToolbarButtonComponent&#45;&gt;IgetEditorModule</title>
<path fill="none" stroke="#000000" d="M1154,-233.5991C1154,-249.6394 1154,-270.5901 1154,-270.5901 1154,-270.5901 1003.4003,-270.5901 1003.4003,-270.5901"/>
<polygon fill="#000000" stroke="#000000" points="1003.4003,-267.0902 993.4003,-270.5901 1003.4003,-274.0902 1003.4003,-267.0902"/>
</g>
<!-- IgetEditorToolbarComponent -->
<g id="node5" class="node">
<title>IgetEditorToolbarComponent</title>
<polygon fill="#ffffb3" stroke="#000000" points="1026.4115,-233.5901 843.5885,-233.5901 843.5885,-197.5901 1026.4115,-197.5901 1026.4115,-233.5901"/>
<text text-anchor="middle" x="935" y="-211.3901" font-family="Times,serif" font-size="14.00" fill="#000000">IgetEditorToolbarComponent</text>
</g>
<!-- IgetEditorToolbarComponent&#45;&gt;IgetEditorModule -->
<g id="edge6" class="edge">
<title>IgetEditorToolbarComponent&#45;&gt;IgetEditorModule</title>
<path fill="none" stroke="#000000" d="M935,-233.6962C935,-233.6962 935,-252.581 935,-252.581"/>
<polygon fill="#000000" stroke="#000000" points="931.5001,-252.581 935,-262.581 938.5001,-252.5811 931.5001,-252.581"/>
</g>
<!-- IgetEditorToolbarGroupComponent -->
<g id="node6" class="node">
<title>IgetEditorToolbarGroupComponent</title>
<polygon fill="#ffffb3" stroke="#000000" points="826.1783,-233.5901 607.8217,-233.5901 607.8217,-197.5901 826.1783,-197.5901 826.1783,-233.5901"/>
<text text-anchor="middle" x="717" y="-211.3901" font-family="Times,serif" font-size="14.00" fill="#000000">IgetEditorToolbarGroupComponent</text>
</g>
<!-- IgetEditorToolbarGroupComponent&#45;&gt;IgetEditorModule -->
<g id="edge7" class="edge">
<title>IgetEditorToolbarGroupComponent&#45;&gt;IgetEditorModule</title>
<path fill="none" stroke="#000000" d="M717,-233.5991C717,-249.6394 717,-270.5901 717,-270.5901 717,-270.5901 866.58,-270.5901 866.58,-270.5901"/>
<polygon fill="#000000" stroke="#000000" points="866.58,-274.0902 876.58,-270.5901 866.58,-267.0902 866.58,-274.0902"/>
</g>
<!-- LinkDialogComponent -->
<g id="node7" class="node">
<title>LinkDialogComponent</title>
<polygon fill="#ffffb3" stroke="#000000" points="589.8781,-233.5901 444.1219,-233.5901 444.1219,-197.5901 589.8781,-197.5901 589.8781,-233.5901"/>
<text text-anchor="middle" x="517" y="-211.3901" font-family="Times,serif" font-size="14.00" fill="#000000">LinkDialogComponent</text>
</g>
<!-- LinkDialogComponent&#45;&gt;IgetEditorModule -->
<g id="edge8" class="edge">
<title>LinkDialogComponent&#45;&gt;IgetEditorModule</title>
<path fill="none" stroke="#000000" d="M517,-233.8568C517,-252.1452 517,-277.5901 517,-277.5901 517,-277.5901 866.4388,-277.5901 866.4388,-277.5901"/>
<polygon fill="#000000" stroke="#000000" points="866.4388,-281.0902 876.4388,-277.5901 866.4387,-274.0902 866.4388,-281.0902"/>
</g>
<!-- IgetEditorComponent  -->
<g id="node10" class="node">
<title>IgetEditorComponent </title>
<polygon fill="#fb8072" stroke="#000000" points="1005.5932,-363.5901 864.4068,-363.5901 864.4068,-327.5901 1005.5932,-327.5901 1005.5932,-363.5901"/>
<text text-anchor="middle" x="935" y="-341.3901" font-family="Times,serif" font-size="14.00" fill="#000000">IgetEditorComponent </text>
</g>
<!-- IgetEditorModule&#45;&gt;IgetEditorComponent  -->
<g id="edge9" class="edge">
<title>IgetEditorModule&#45;&gt;IgetEditorComponent </title>
<path fill="none" stroke="#000000" stroke-dasharray="5,2" d="M935,-298.6962C935,-298.6962 935,-317.581 935,-317.581"/>
<polygon fill="#000000" stroke="#000000" points="931.5001,-317.581 935,-327.581 938.5001,-317.5811 931.5001,-317.581"/>
</g>
<!-- {
 &#160;&#160;&#160;provide: NG_VALUE_ACCESSOR, useExisting: forwardRef(() =&gt; IgetEditorComponent), multi: true
} -->
<g id="node9" class="node">
<title>{
 &#160;&#160;&#160;provide: NG_VALUE_ACCESSOR, useExisting: forwardRef(() =&gt; IgetEditorComponent), multi: true
}</title>
<ellipse fill="#fdb462" stroke="#000000" cx="1394" cy="-127.295" rx="429.7932" ry="41.0911"/>
<text text-anchor="middle" x="1394" y="-139.895" font-family="Times,serif" font-size="14.00" fill="#000000">{</text>
<text text-anchor="middle" x="1394" y="-123.095" font-family="Times,serif" font-size="14.00" fill="#000000"> &#160;&#160;&#160;provide: NG_VALUE_ACCESSOR, useExisting: forwardRef(() =&gt; IgetEditorComponent), multi: true</text>
<text text-anchor="middle" x="1394" y="-106.295" font-family="Times,serif" font-size="14.00" fill="#000000">}</text>
</g>
<!-- {
 &#160;&#160;&#160;provide: NG_VALUE_ACCESSOR, useExisting: forwardRef(() =&gt; IgetEditorComponent), multi: true
}&#45;&gt;IgetEditorComponent -->
<g id="edge2" class="edge">
<title>{
 &#160;&#160;&#160;provide: NG_VALUE_ACCESSOR, useExisting: forwardRef(() =&gt; IgetEditorComponent), multi: true
}&#45;&gt;IgetEditorComponent</title>
<path fill="none" stroke="#000000" d="M1754.8001,-150.0332C1754.8001,-150.0332 1754.8001,-187.3756 1754.8001,-187.3756"/>
<polygon fill="#000000" stroke="#000000" points="1751.3002,-187.3756 1754.8001,-197.3756 1758.3002,-187.3756 1751.3002,-187.3756"/>
</g>
<!-- CommandExecutorService -->
<g id="node11" class="node">
<title>CommandExecutorService</title>
<ellipse fill="#fdb462" stroke="#000000" cx="305" cy="-215.5901" rx="115.1706" ry="18"/>
<text text-anchor="middle" x="305" y="-211.3901" font-family="Times,serif" font-size="14.00" fill="#000000">CommandExecutorService</text>
</g>
<!-- CommandExecutorService&#45;&gt;IgetEditorModule -->
<g id="edge10" class="edge">
<title>CommandExecutorService&#45;&gt;IgetEditorModule</title>
<path fill="none" stroke="#000000" d="M305,-233.719C305,-254.1625 305,-284.5901 305,-284.5901 305,-284.5901 866.5789,-284.5901 866.5789,-284.5901"/>
<polygon fill="#000000" stroke="#000000" points="866.5789,-288.0902 876.5789,-284.5901 866.5789,-281.0902 866.5789,-288.0902"/>
</g>
<!-- MessageService -->
<g id="node12" class="node">
<title>MessageService</title>
<ellipse fill="#fdb462" stroke="#000000" cx="98" cy="-215.5901" rx="73.5522" ry="18"/>
<text text-anchor="middle" x="98" y="-211.3901" font-family="Times,serif" font-size="14.00" fill="#000000">MessageService</text>
</g>
<!-- MessageService&#45;&gt;IgetEditorModule -->
<g id="edge11" class="edge">
<title>MessageService&#45;&gt;IgetEditorModule</title>
<path fill="none" stroke="#000000" d="M98,-233.601C98,-256.0752 98,-291.5901 98,-291.5901 98,-291.5901 866.8083,-291.5901 866.8083,-291.5901"/>
<polygon fill="#000000" stroke="#000000" points="866.8084,-295.0902 876.8083,-291.5901 866.8083,-288.0902 866.8084,-295.0902"/>
</g>
</g>
</svg>
